<?xml version="1.0" standalone="no"?>
<!DOCTYPE svg PUBLIC "-//W3C//DTD SVG 20010904//EN"
 "http://www.w3.org/TR/2001/REC-SVG-20010904/DTD/svg10.dtd">
<svg version="1.0" xmlns="http://www.w3.org/2000/svg"
 width="152.000000pt" height="152.000000pt" viewBox="0 0 152.000000 152.000000"
 preserveAspectRatio="xMidYMid meet">
<metadata>
Created by potrace 1.14, written by Peter Selinger 2001-2017
</metadata>
<g transform="translate(0.000000,152.000000) scale(0.100000,-0.100000)"
fill="#000000" stroke="none">
<path d="M868 1481 c-8 -11 -17 -18 -21 -15 -3 3 -15 -4 -27 -16 -11 -11 -25
-18 -30 -15 -6 4 -10 2 -10 -4 0 -6 -16 -18 -35 -27 -19 -9 -35 -20 -35 -24 0
-7 -28 -18 -46 -18 -3 -1 -13 -9 -22 -19 -9 -10 -24 -19 -32 -21 -8 -2 -17 -7
-20 -11 -7 -11 -54 -36 -62 -33 -5 1 -8 -3 -8 -9 0 -5 -14 -15 -30 -20 -17 -6
-30 -15 -30 -20 0 -5 -7 -9 -15 -9 -8 0 -15 -5 -15 -11 0 -6 -6 -9 -12 -6 -7
2 -22 -5 -34 -17 -11 -12 -27 -22 -34 -24 -8 -2 -17 -7 -20 -10 -3 -4 -16 -13
-30 -20 -26 -13 -41 -62 -19 -62 5 0 7 -4 4 -10 -3 -5 2 -10 11 -10 10 0 15
-3 12 -6 -7 -6 61 -74 74 -74 4 0 8 -7 8 -16 0 -8 4 -13 9 -9 5 3 12 -4 16
-15 3 -11 13 -20 21 -20 8 0 14 -7 14 -17 0 -9 3 -14 6 -10 8 7 34 -17 34 -32
0 -6 4 -11 9 -11 5 0 11 -9 14 -20 3 -11 1 -20 -4 -20 -5 0 -8 -3 -8 -7 3 -21
-2 -33 -13 -27 -6 4 -8 3 -4 -4 6 -11 -41 -119 -66 -150 -11 -13 -11 -14 1 -7
7 4 4 -6 -9 -23 -13 -18 -19 -35 -15 -43 5 -8 4 -10 -3 -5 -7 4 -13 2 -13 -3
-2 -18 -5 -25 -25 -66 -10 -22 -23 -43 -27 -46 -5 -3 -9 -10 -9 -15 0 -5 -5
-20 -11 -34 -6 -14 -10 -28 -9 -32 1 -5 -2 -8 -7 -8 -4 0 -14 -20 -21 -44 -12
-42 -11 -46 12 -68 13 -13 30 -24 38 -26 8 -2 17 -8 18 -13 2 -5 8 -9 14 -9 6
0 27 -13 48 -30 21 -17 43 -30 49 -30 6 0 11 -4 11 -10 0 -5 6 -10 14 -10 7 0
19 -7 26 -15 17 -21 69 -45 97 -45 27 0 64 17 75 34 4 6 12 11 18 11 6 0 15 7
20 15 5 8 10 11 10 6 0 -5 9 3 21 18 11 14 26 26 32 26 7 0 27 13 45 29 17 17
32 28 32 25 0 -3 17 8 37 23 50 37 54 40 82 63 13 11 28 17 34 13 5 -3 8 -2 5
3 -3 5 0 15 8 22 8 7 14 9 14 5 1 -4 9 2 19 14 10 12 21 19 25 16 3 -3 8 2 12
11 3 9 12 16 20 16 8 0 14 5 14 10 0 6 4 10 10 10 9 0 35 19 65 47 7 7 15 10
17 7 3 -2 13 7 22 21 19 29 15 55 -9 55 -8 0 -15 4 -15 8 0 5 -18 8 -39 8 -22
-1 -38 2 -35 5 5 9 -16 16 -43 14 -13 -1 -23 2 -23 7 0 5 -9 6 -20 3 -11 -3
-20 -2 -20 2 0 5 -17 10 -37 11 -33 3 -74 22 -47 22 5 0 3 4 -5 9 -12 8 -12
14 0 43 7 18 13 36 11 41 -1 4 3 7 9 7 5 0 7 4 4 10 -3 5 -2 10 4 10 6 0 14
12 17 28 4 15 11 30 16 33 5 3 10 12 12 20 1 8 19 50 40 94 21 44 38 84 39 90
1 5 8 16 15 23 7 8 16 28 19 44 3 16 12 32 19 35 7 2 11 13 9 24 -2 10 -1 19
3 19 4 0 13 9 20 21 11 17 11 20 0 13 -7 -4 -5 2 6 14 10 12 16 28 13 35 -3 8
-2 18 3 23 5 5 2 18 -6 28 -8 11 -14 17 -14 13 0 -4 -23 15 -51 43 -28 27 -54
50 -58 50 -5 0 -17 11 -27 25 -10 14 -25 25 -32 25 -7 0 -10 5 -7 10 3 6 0 10
-8 10 -8 0 -22 10 -31 23 -18 23 -66 33 -66 13 0 -7 -4 -6 -9 3 -7 10 -11 9
-23 -8z"/>
</g>
</svg>
