<svg width="110" height="48" viewBox="0 0 110 48" fill="none" xmlns="http://www.w3.org/2000/svg">
<path d="M59.5843 11.0654C58.0366 11.0654 56.9475 12.2405 56.9475 13.9889V28.0902C56.9475 29.8385 58.0366 31.0136 59.5843 31.0136C61.1321 31.0136 62.2212 29.8385 62.2212 28.0902V13.9889C62.2212 12.2405 61.1034 11.0654 59.5843 11.0654Z" fill="#00D287"/>
<path d="M67.0355 2.55322C65.4878 2.55322 64.3987 3.72833 64.3987 5.47666V28.0903C64.3987 29.8387 65.4878 31.0138 67.0355 31.0138C68.5832 31.0138 69.6724 29.8387 69.6724 28.0903V5.47666C69.6724 3.72833 68.5546 2.55322 67.0355 2.55322Z" fill="#00D287"/>
<path d="M102.806 10.8363C101.143 10.8363 99.1083 11.3235 97.9905 12.6706H97.9045V5.47666C97.9045 3.72833 96.8154 2.55322 95.2677 2.55322C93.72 2.55322 92.6309 3.72833 92.6309 5.47666V28.0903C92.6309 29.8387 93.72 31.0138 95.2677 31.0138C96.8154 31.0138 97.9045 29.8387 97.9045 28.0903V18.8901C97.9045 16.8265 99.1083 15.2501 101.287 15.2501C103.207 15.2501 104.726 16.4252 104.726 18.8901V28.119C104.726 29.8673 105.815 31.0424 107.363 31.0424C108.91 31.0424 110 29.8673 110 28.119V17.9729C110.028 13.5018 106.933 10.8363 102.806 10.8363Z" fill="#00D287"/>
<path d="M89.3925 23.5335C88.1887 22.5877 86.469 22.817 85.5232 24.0207C84.6347 25.1385 83.3449 25.7977 81.9119 25.7977C79.3897 25.7977 77.3548 23.7341 77.3548 21.2406C77.3548 18.7471 79.4184 16.6835 81.9119 16.6835C83.2303 16.6835 84.4914 17.2567 85.3799 18.2598C86.383 19.4063 88.1027 19.5496 89.2778 18.5464C90.4243 17.5433 90.5676 15.8236 89.5644 14.6485C87.6441 12.4416 84.864 11.1519 81.9405 11.1519C76.3803 11.1519 71.8518 15.6803 71.8518 21.2406C71.8518 26.8009 76.3803 31.3293 81.9405 31.3293C85.0646 31.3293 87.9881 29.8963 89.9084 27.4314C90.7969 26.199 90.5962 24.4793 89.3925 23.5335Z" fill="#00D287"/>
<path d="M53.9379 15.5372C53.9665 15.5085 53.9665 15.5085 53.9952 15.4798C54.0239 15.4512 54.0525 15.4225 54.0812 15.3939C54.1098 15.3652 54.1385 15.3365 54.1672 15.3079C54.1958 15.2792 54.2245 15.2506 54.2531 15.2219C54.2818 15.1932 54.3105 15.1646 54.3391 15.1072C54.3678 15.0786 54.3678 15.0499 54.3965 15.0213C54.4251 14.9926 54.4538 14.9639 54.4538 14.9066C54.4824 14.878 54.4824 14.8493 54.5111 14.8206C54.5398 14.792 54.5398 14.7633 54.5684 14.706C54.5971 14.6773 54.5971 14.62 54.6257 14.5913C54.6257 14.5627 54.6544 14.534 54.6544 14.4767C54.6544 14.448 54.6831 14.3907 54.6831 14.3621C54.6831 14.3334 54.7117 14.3047 54.7117 14.2474C54.7117 14.2187 54.7404 14.1614 54.7404 14.1328C54.7404 14.1041 54.7404 14.0468 54.7691 14.0181C54.7691 13.9895 54.769 13.9321 54.7977 13.9035C54.7977 13.8462 54.7977 13.8175 54.7977 13.7602C54.7977 13.7315 54.7977 13.7028 54.7977 13.6742V13.6455C54.7977 13.5882 54.7977 13.5595 54.7977 13.5022C54.7977 13.4736 54.7977 13.4449 54.7977 13.3876C54.7977 13.3303 54.7977 13.3016 54.7691 13.2443C54.7691 13.2156 54.7691 13.1869 54.7404 13.1296C54.7404 13.101 54.7117 13.0436 54.7117 13.015C54.7117 12.9863 54.6831 12.929 54.6831 12.9003C54.6831 12.8717 54.6544 12.8144 54.6544 12.7857C54.6544 12.757 54.6257 12.6997 54.6257 12.671C54.5971 12.6424 54.5971 12.6137 54.5684 12.5851C54.5398 12.5564 54.5398 12.4991 54.5111 12.4704C54.4824 12.4418 54.4824 12.4131 54.4538 12.3844C54.4251 12.3558 54.3965 12.2984 54.3678 12.2698C54.3391 12.2411 54.3391 12.2125 54.3105 12.1838C54.2818 12.1551 54.2531 12.0978 54.2245 12.0692C54.2245 12.0692 54.2245 12.0692 54.1958 12.0405C54.1672 12.0118 54.1672 12.0118 54.1385 11.9832C54.1098 11.9545 54.0812 11.9259 54.0525 11.8972C54.0239 11.8685 53.9952 11.8399 53.9665 11.8112C53.9379 11.7825 53.9092 11.7539 53.8806 11.7252C53.8519 11.6966 53.8232 11.6679 53.7659 11.6392C53.7373 11.6106 53.7086 11.6106 53.6799 11.5819C53.6513 11.5533 53.5939 11.5246 53.5653 11.5246C53.5366 11.4959 53.508 11.4959 53.4793 11.4673C53.4506 11.4386 53.3933 11.4386 53.3647 11.41C53.336 11.3813 53.2787 11.3813 53.25 11.3526C53.2213 11.3526 53.1927 11.324 53.1354 11.324C53.1067 11.324 53.0494 11.2953 53.0207 11.2953C52.9921 11.2953 52.9634 11.2666 52.9061 11.2666C52.8774 11.2666 52.8201 11.238 52.7914 11.238C52.7628 11.238 52.7054 11.238 52.6768 11.2093C52.6481 11.2093 52.5908 11.2093 52.5621 11.1807C52.5048 11.1807 52.4762 11.1807 52.4188 11.1807C52.3902 11.1807 52.3615 11.1807 52.3329 11.1807H41.1837C39.8366 11.1807 38.7761 12.2698 38.7761 13.5882C38.7761 14.9066 39.8652 15.9957 41.1837 15.9957H46.4C40.897 22.1292 39.0054 27.5175 38.8908 27.8041V27.8328C38.8621 27.8901 38.8621 27.9188 38.8621 27.9761C38.8621 28.0048 38.8334 28.0334 38.8334 28.0621C38.8334 28.0908 38.8048 28.1481 38.8048 28.1767C38.8048 28.2054 38.7761 28.2627 38.7761 28.2914C38.7761 28.32 38.7761 28.3487 38.7761 28.3774C38.7761 28.4347 38.7761 28.492 38.7761 28.5207C38.7761 28.5207 38.7761 28.578 38.7761 28.6067C38.7761 28.664 38.7761 28.7213 38.7761 28.75C38.7761 28.7786 38.7761 28.8073 38.7761 28.836C38.7761 28.8933 38.7761 28.9219 38.8048 28.9793C38.8048 29.0079 38.8334 29.0652 38.8334 29.0939C38.8334 29.1226 38.8621 29.1799 38.8621 29.2085C38.8621 29.2372 38.8908 29.2945 38.8908 29.3232C38.8908 29.3519 38.9194 29.3805 38.9194 29.4092C38.9481 29.4378 38.9481 29.4952 38.9768 29.5238C38.9768 29.5525 39.0054 29.5811 39.0054 29.6098C39.0341 29.6385 39.0341 29.6958 39.0627 29.7244C39.0914 29.7531 39.0914 29.7818 39.1201 29.8104C39.1487 29.8391 39.1774 29.8678 39.1774 29.8964C39.206 29.9251 39.2347 29.9537 39.2347 29.9824C39.2634 30.0111 39.292 30.0397 39.292 30.0684C39.3207 30.097 39.3493 30.1257 39.378 30.1544C39.4067 30.183 39.4353 30.2117 39.4353 30.2117C39.464 30.2403 39.4927 30.269 39.55 30.2977C39.5786 30.3263 39.6073 30.3263 39.636 30.355C39.6646 30.3837 39.6933 30.4123 39.7506 30.441C39.7793 30.4696 39.8079 30.4696 39.8366 30.4983C39.8652 30.527 39.8939 30.527 39.9512 30.5556C39.9799 30.5843 40.0372 30.5843 40.0659 30.6129C40.0945 30.6416 40.1232 30.6416 40.1519 30.6416C40.2092 30.6703 40.2378 30.6703 40.2952 30.6989C40.3238 30.6989 40.3238 30.7276 40.3525 30.7276H40.3811C40.4098 30.7276 40.4385 30.7563 40.4958 30.7563C40.5245 30.7563 40.5818 30.7849 40.6104 30.7849C40.6391 30.7849 40.6678 30.7849 40.6964 30.8136C40.7537 30.8136 40.8111 30.8422 40.8397 30.8422C40.8684 30.8422 40.8684 30.8422 40.897 30.8422C40.983 30.8422 41.0404 30.8422 41.1263 30.8422C41.1263 30.8422 41.1263 30.8422 41.155 30.8422H52.2755C53.6226 30.8422 54.6831 29.7531 54.6831 28.4347C54.6831 27.1163 53.5939 26.0272 52.2755 26.0272H44.9669C46.5433 23.5623 49.3234 19.4924 53.9379 15.5372Z" fill="#00D287"/>
<path d="M0.858727 12.0967C7.33615 8.14145 13.8136 4.15755 20.2623 0.202302C20.7782 -0.112971 21.4374 -0.0556483 21.896 0.345608C24.4755 2.66716 27.0837 4.98872 29.6632 7.31028C30.1218 7.71153 30.2651 8.37074 30.0071 8.9153C27.1697 15.0488 24.3322 21.1823 21.4661 27.2871C21.1508 27.975 21.5521 28.7775 22.2686 28.9495C25.0774 29.6087 27.8862 30.2392 30.695 30.8984C31.6122 31.0991 31.8414 32.2742 31.0963 32.8187C24.7335 37.4905 18.342 42.1623 11.9793 46.834C11.3201 47.3213 10.4316 47.3499 9.74369 46.8914C6.70561 44.9137 3.66752 42.9361 0.629438 40.9585C0.0562146 40.5859 -0.173075 39.8407 0.142198 39.2102C2.75036 33.6786 5.38719 28.147 7.99536 22.644C8.25331 22.0708 8.13866 21.4116 7.70875 20.953C5.35853 18.6028 3.00831 16.2526 0.658099 13.931C0.113537 13.4151 0.228182 12.4979 0.858727 12.0967Z" fill="#00D287"/>
</svg>
