<svg width="96" height="75" viewBox="0 0 96 75" fill="none" xmlns="http://www.w3.org/2000/svg">
<path d="M17.9496 74.2301V69.3155C17.9783 68.9021 17.9188 68.4874 17.775 68.0989C17.6312 67.7104 17.4064 67.3571 17.1156 67.0626C16.8248 66.768 16.4747 66.539 16.0885 66.3908C15.7024 66.2426 15.2893 66.1786 14.8765 66.203C14.3364 66.1677 13.7966 66.2783 13.3136 66.5232C12.8306 66.7681 12.422 67.1384 12.1304 67.5954C11.8646 67.152 11.4844 66.7887 11.0299 66.5436C10.5754 66.2986 10.0633 66.1809 9.54765 66.203C9.09816 66.1804 8.65055 66.2758 8.24917 66.4798C7.84778 66.6838 7.50652 66.9893 7.25917 67.3661V66.3996H5.55908V74.2301H7.27543V69.8888C7.23832 69.621 7.26088 69.3482 7.34146 69.0901C7.42205 68.832 7.55867 68.5949 7.74152 68.396C7.92437 68.1971 8.1489 68.0413 8.39899 67.9397C8.64908 67.8381 8.91854 67.7933 9.18798 67.8084C10.3159 67.8084 10.8881 68.5456 10.8881 69.8725V74.2301H12.6044V69.8888C12.5701 69.6215 12.5946 69.3498 12.6762 69.0929C12.7578 68.836 12.8946 68.6002 13.0768 68.4019C13.2591 68.2037 13.4825 68.0478 13.7313 67.9452C13.9801 67.8427 14.2482 67.796 14.5169 67.8084C15.6774 67.8084 16.2332 68.5456 16.2332 69.8725V74.2301H17.9496ZM43.3517 66.3996H40.5729V64.0243H38.8565V66.3996H37.2709V67.9559H38.8565V71.5271C38.8565 73.3454 39.5594 74.4267 41.57 74.4267C42.3211 74.429 43.0576 74.2189 43.6949 73.8205L43.2046 72.3625C42.7487 72.6351 42.2313 72.7873 41.7007 72.8049C40.8507 72.8049 40.5729 72.2805 40.5729 71.4944V67.9559H43.3517V66.3996ZM57.8509 66.203C57.4364 66.1908 57.0263 66.2908 56.6638 66.4926C56.3013 66.6945 55.9999 66.9906 55.7913 67.3497V66.3996H54.1075V74.2301H55.8075V69.8397C55.8075 68.5456 56.3633 67.8248 57.475 67.8248C57.8386 67.8198 58.1996 67.8866 58.5374 68.0214L59.0605 66.4159C58.6722 66.2767 58.2632 66.2047 57.8509 66.203ZM35.9305 67.0221C34.9683 66.4487 33.8619 66.1644 32.743 66.203C30.7651 66.203 29.4901 67.1531 29.4901 68.7094C29.4901 69.9872 30.4382 70.7736 32.1871 71.0193L32.9881 71.1339C33.9198 71.2648 34.3613 71.5106 34.3613 71.9529C34.3613 72.559 33.74 72.9032 32.5795 72.9032C31.646 72.9301 30.7305 72.6415 29.9804 72.084L29.1795 73.4109C30.1697 74.104 31.3558 74.4601 32.5632 74.4267C34.8189 74.4267 36.1265 73.3618 36.1265 71.8711C36.1265 70.495 35.0968 69.7742 33.3968 69.5284L32.5959 69.4137C31.8603 69.3155 31.2719 69.1682 31.2719 68.644C31.2719 68.0706 31.8275 67.7265 32.7593 67.7265C33.6149 67.7394 34.4532 67.9706 35.1949 68.3981L35.9305 67.0221ZM81.4712 66.203C81.0567 66.1908 80.6466 66.2908 80.2841 66.4926C79.9216 66.6945 79.6202 66.9906 79.4116 67.3497V66.3996H77.728V74.2301H79.4279V69.8397C79.4279 68.5456 79.9837 67.8248 81.0952 67.8248C81.4588 67.8198 81.8199 67.8866 82.1578 68.0214L82.6809 66.4159C82.2926 66.2767 81.8836 66.2047 81.4712 66.203ZM59.5671 70.3147C59.5445 70.8663 59.6374 71.4166 59.8398 71.9301C60.0422 72.4436 60.3496 72.909 60.7422 73.2963C61.1348 73.6837 61.604 73.9843 62.1195 74.179C62.6351 74.3737 63.1855 74.4581 63.7356 74.4267C64.7562 74.4781 65.7591 74.145 66.547 73.4928L65.7298 72.1167C65.142 72.5657 64.4254 72.8128 63.6865 72.8212C63.0494 72.7824 62.4511 72.5015 62.0137 72.0357C61.5763 71.5699 61.3327 70.9544 61.3327 70.3148C61.3327 69.6752 61.5763 69.0597 62.0137 68.5939C62.4511 68.1281 63.0494 67.8472 63.6865 67.8084C64.4255 67.8168 65.1421 68.0639 65.7298 68.5129L66.547 67.1367C65.759 66.4847 64.7562 66.1517 63.7356 66.203C63.1856 66.1717 62.6351 66.256 62.1196 66.4507C61.6041 66.6453 61.1349 66.946 60.7423 67.3332C60.3497 67.7205 60.0423 68.1858 59.8399 68.6993C59.6375 69.2128 59.5446 69.763 59.5671 70.3147ZM75.4885 70.3147V66.3996H73.7885V67.3497C73.4983 66.975 73.1228 66.6753 72.6933 66.4758C72.2639 66.2763 71.793 66.1828 71.3201 66.203C70.2668 66.2548 69.2736 66.7106 68.5463 67.476C67.8191 68.2415 67.4134 69.2579 67.4134 70.3149C67.4134 71.3718 67.8191 72.3883 68.5463 73.1537C69.2736 73.9192 70.2668 74.375 71.3201 74.4267C71.793 74.4469 72.2639 74.3534 72.6934 74.1538C73.1228 73.9543 73.4983 73.6546 73.7885 73.2798V74.2301H75.4885V70.3147ZM69.1624 70.3147C69.1888 69.8526 69.3495 69.4084 69.6248 69.0367C69.9001 68.6651 70.2779 68.3824 70.7116 68.2234C71.1453 68.0644 71.616 68.036 72.0656 68.1419C72.5152 68.2478 72.924 68.4832 73.2417 68.8191C73.5594 69.155 73.772 69.5768 73.8534 70.0324C73.9348 70.488 73.8813 70.9575 73.6996 71.383C73.5179 71.8085 73.2159 72.1714 72.8309 72.4269C72.4458 72.6825 71.9946 72.8196 71.5328 72.8212C71.209 72.8256 70.8879 72.7627 70.5897 72.6366C70.2914 72.5104 70.0225 72.3237 69.7998 72.0882C69.5771 71.8527 69.4055 71.5736 69.2958 71.2683C69.1861 70.9631 69.1407 70.6384 69.1624 70.3147ZM48.648 66.203C47.5878 66.259 46.5905 66.7242 45.8652 67.5011C45.1399 68.278 44.743 69.3062 44.7578 70.37C44.7726 71.4339 45.198 72.4506 45.9446 73.2069C46.6912 73.9633 47.7011 74.4004 48.7624 74.4267C49.9286 74.4677 51.0691 74.077 51.9662 73.329L51.1325 72.0677C50.487 72.5861 49.6875 72.8743 48.8604 72.8867C48.2987 72.9341 47.7406 72.7605 47.3043 72.4027C46.868 72.045 46.5878 71.5311 46.5229 70.9699H52.3259C52.3422 70.7571 52.3585 70.5441 52.3585 70.3147C52.3422 67.8739 50.8383 66.203 48.648 66.203ZM48.6152 67.7265C49.1287 67.7165 49.6252 67.9109 49.9959 68.2671C50.3667 68.6233 50.5814 69.1122 50.5931 69.6268H46.5392C46.5691 69.1011 46.803 68.6079 47.1909 68.2528C47.5789 67.8977 48.0901 67.7088 48.6152 67.7265ZM91.2626 70.3147V63.2544H89.5626V67.3497C89.2724 66.975 88.8969 66.6753 88.4675 66.4758C88.038 66.2763 87.5672 66.1828 87.0943 66.203C86.0409 66.2547 85.0477 66.7105 84.3204 67.476C83.5931 68.2415 83.1875 69.2579 83.1875 70.3149C83.1875 71.3718 83.5931 72.3883 84.3204 73.1538C85.0477 73.9192 86.0409 74.375 87.0943 74.4267C87.5672 74.4469 88.0381 74.3534 88.4675 74.1538C88.8969 73.9543 89.2724 73.6546 89.5626 73.2798V74.2301H91.2626V70.3147ZM94.0965 73.0953C94.202 73.0946 94.3067 73.1154 94.404 73.1564C94.4976 73.1955 94.5829 73.2522 94.6553 73.3233C94.7271 73.3942 94.7846 73.4784 94.8246 73.5712C94.8654 73.6666 94.8865 73.7693 94.8865 73.8731C94.8865 73.977 94.8654 74.0797 94.8246 74.1751C94.7844 74.2675 94.7269 74.3513 94.6553 74.4221C94.5827 74.4932 94.4974 74.5501 94.404 74.5898C94.3069 74.6315 94.2021 74.6527 94.0965 74.6519C93.9409 74.6535 93.7884 74.6091 93.6579 74.5243C93.5274 74.4395 93.4248 74.318 93.3628 74.1751C93.322 74.0797 93.301 73.9769 93.301 73.8731C93.301 73.7694 93.322 73.6667 93.3628 73.5712C93.4026 73.4785 93.4598 73.3944 93.5313 73.3233C93.6037 73.2516 93.6893 73.1949 93.7835 73.1564C93.8827 73.1152 93.9891 73.0945 94.0965 73.0953ZM94.0965 74.4802C94.177 74.4809 94.2568 74.4646 94.3308 74.4325C94.4017 74.4016 94.4663 74.3576 94.521 74.3028C94.6338 74.1886 94.6972 74.0343 94.6972 73.8735C94.6972 73.7128 94.6338 73.5585 94.521 73.4443C94.4664 73.3896 94.4018 73.3459 94.3308 73.3156C94.2567 73.2841 94.1769 73.2682 94.0965 73.2689C94.0145 73.2683 93.9333 73.2842 93.8576 73.3156C93.7855 73.3454 93.7199 73.3892 93.6645 73.4443C93.5516 73.5585 93.4882 73.7127 93.4882 73.8735C93.4882 74.0343 93.5516 74.1886 93.6645 74.3028C93.72 74.3581 93.7855 74.4021 93.8576 74.4325C93.9332 74.4646 94.0144 74.4808 94.0965 74.4802ZM94.1422 73.5091C94.2186 73.5042 94.2944 73.5261 94.3564 73.5712C94.3811 73.5916 94.4008 73.6175 94.4138 73.6468C94.4268 73.6761 94.4329 73.708 94.4315 73.7401C94.4324 73.7675 94.4275 73.7949 94.4172 73.8203C94.4069 73.8457 94.3913 73.8687 94.3716 73.8878C94.3243 73.9299 94.2643 73.9551 94.2012 73.9594L94.4373 74.2322H94.2527L94.0338 73.9613H93.9633V74.2322H93.8092V73.5091H94.1422ZM93.9633 73.6447V73.8374H94.1404C94.1744 73.8391 94.2082 73.8307 94.2375 73.8134C94.2494 73.8054 94.259 73.7945 94.2653 73.7816C94.2717 73.7687 94.2745 73.7544 94.2735 73.7401C94.2743 73.726 94.2714 73.712 94.2651 73.6994C94.2588 73.6868 94.2492 73.6761 94.2375 73.6684C94.2081 73.6513 94.1743 73.643 94.1404 73.6447H93.9633ZM84.9367 70.3147C84.9631 69.8526 85.1238 69.4084 85.3991 69.0368C85.6744 68.6653 86.0522 68.3826 86.4859 68.2236C86.9196 68.0646 87.3903 68.0363 87.8398 68.1422C88.2894 68.248 88.6982 68.4834 89.0158 68.8194C89.3335 69.1553 89.5461 69.5771 89.6274 70.0326C89.7088 70.4882 89.6553 70.9577 89.4736 71.3831C89.2919 71.8086 88.9899 72.1715 88.6049 72.427C88.2198 72.6826 87.7686 72.8196 87.3068 72.8212C86.9831 72.8255 86.662 72.7627 86.3638 72.6365C86.0655 72.5104 85.7966 72.3237 85.5739 72.0882C85.3512 71.8527 85.1797 71.5735 85.07 71.2683C84.9603 70.9631 84.9149 70.6384 84.9367 70.3147ZM27.5285 70.3147V66.3996H25.8285V67.3497C25.5383 66.975 25.1628 66.6753 24.7334 66.4758C24.3039 66.2763 23.8331 66.1828 23.3602 66.203C22.3068 66.2548 21.3136 66.7106 20.5864 67.476C19.8591 68.2415 19.4535 69.2579 19.4535 70.3149C19.4535 71.3718 19.8591 72.3883 20.5864 73.1537C21.3136 73.9192 22.3068 74.375 23.3602 74.4267C23.8331 74.4469 24.3039 74.3534 24.7334 74.1538C25.1628 73.9543 25.5383 73.6546 25.8285 73.2798V74.2301H27.5285V70.3147ZM21.2026 70.3147C21.229 69.8526 21.3897 69.4084 21.665 69.0368C21.9403 68.6653 22.3181 68.3826 22.7518 68.2236C23.1855 68.0646 23.6562 68.0363 24.1057 68.1422C24.5553 68.248 24.9641 68.4834 25.2818 68.8194C25.5994 69.1553 25.812 69.5771 25.8934 70.0326C25.9747 70.4882 25.9212 70.9577 25.7395 71.3831C25.5578 71.8086 25.2558 72.1715 24.8708 72.427C24.4857 72.6826 24.0345 72.8196 23.5727 72.8212C23.249 72.8255 22.9279 72.7627 22.6297 72.6365C22.3314 72.5104 22.0625 72.3237 21.8398 72.0882C21.6172 71.8527 21.4456 71.5735 21.3359 71.2683C21.2262 70.9631 21.1808 70.6384 21.2026 70.3147Z" fill="#FFFFFF"/>
<path d="M61.0819 6.72021H35.333V53.0922H61.0819V6.72021Z" fill="#FF5F00"/>
<path d="M36.9907 29.9045C36.9867 25.4386 37.9965 21.0303 39.9438 17.0132C41.891 12.9962 44.7247 9.47581 48.2303 6.71856C43.8891 3.29892 38.6755 1.1723 33.1854 0.58176C27.6953 -0.00877917 22.1501 0.960597 17.1838 3.37909C12.2174 5.79758 8.03014 9.56759 5.10067 14.2582C2.1712 18.9489 0.617676 24.3709 0.617676 29.9045C0.617676 35.4382 2.1712 40.8602 5.10067 45.5509C8.03014 50.2415 12.2174 54.0115 17.1838 56.43C22.1501 58.8485 27.6953 59.8179 33.1854 59.2274C38.6755 58.6368 43.8891 56.5102 48.2303 53.0906C44.7247 50.3333 41.8911 46.8129 39.9438 42.7959C37.9965 38.7789 36.9867 34.3705 36.9907 29.9045Z" fill="#EB001B"/>
<path d="M95.8176 29.9041C95.8178 35.4376 94.2645 40.8596 91.3352 45.5503C88.4059 50.2409 84.2188 54.011 79.2525 56.4295C74.2862 58.848 68.7411 59.8174 63.2511 59.2269C57.7611 58.6363 52.5476 56.5097 48.2065 53.0901C51.709 50.33 54.5405 46.809 56.4874 42.7927C58.4344 38.7763 59.446 34.3693 59.446 29.9041C59.446 25.4388 58.4344 21.0319 56.4874 17.0155C54.5405 12.9991 51.709 9.47811 48.2065 6.71807C52.5476 3.29842 57.7611 1.1718 63.2511 0.581267C68.7411 -0.00926554 74.2862 0.960128 79.2525 3.37864C84.2188 5.79716 88.4059 9.56719 91.3352 14.2578C94.2645 18.9485 95.8178 24.3705 95.8176 29.9041Z" fill="#F79E1B"/>
<path d="M93.0522 48.1847V47.2353H93.4342V47.0419H92.4614V47.2353H92.8436V48.1847H93.0522ZM94.9409 48.1847V47.04H94.6427L94.2997 47.8274L93.9567 47.04H93.6583V48.1847H93.8689V47.3213L94.1905 48.0657H94.4088L94.7305 47.3194V48.1847H94.9409Z" fill="#F79E1B"/>
</svg>
