<?xml version="1.0" encoding="utf-8"?>
<!-- Generator: Adobe Illustrator 27.0.0, SVG Export Plug-In . SVG Version: 6.00 Build 0)  -->
<svg 
	 viewBox="0 0 2500 2500" style="enable-background:new 0 0 2500 2500;">

<g>
	<path class="st1" d="M397.2,857.7c-155.7,182.8-304.8,409.4-306.4,578.8c-0.6,63.8,19.8,119.4,68.6,161.5
		c70.2,60.7,147.7,82.1,224.7,82.2c112.6,0.1,224.3-45.3,311.9-80.3c147.4-58.9,1776.7-766.5,1776.7-766.5
		c15.7-7.9,12.8-17.7-6.9-12.8c-7.9,1.9-1773.7,480.5-1773.7,480.5c-33.4,9.5-68,14.5-102.7,14.7c-135.7,0.9-256.5-74.6-255.5-233.3
		C334.1,1020.8,353.2,945.9,397.2,857.7L397.2,857.7z"/>
</g>
</svg>
